<?xml version="1.0" ?>
<svg style="enable-background:new 0 0 48 48;" version="1.1" viewBox="0 0 48 48" xml:space="preserve" xmlns="http://www.w3.org/2000/svg" xmlns:xlink="http://www.w3.org/1999/xlink"><g id="Icons"><g><path d="M32.64102,28.58642l0.99405,0.25154c3.10199,0.8743,5.54522,2.97021,6.59908,5.65293    l1.53306,3.90433c0,0-15.9887,8.2159-35.53442-0.03587l1.53306-3.90445c1.04194-2.68272,3.48517-4.7666,6.58705-5.6409    l5.71286-1.61683l0.44311-1.43718" style="fill:#FFC601;"/><path d="M20.06576,27.19718l4.05948,2.3761l-2.17193,2.39628c0,0-1.68184-4.14335-6.85951-3.3652" style="fill:#F4F4F4;"/><path d="M28.05948,27.18237L24,29.55848l2.17193,2.39628c0,0,1.68185-4.14335,6.85951-3.3652" style="fill:#F4F4F4;"/><polygon points="20.50887,25.76001 20.11562,27.03549 24.12524,29.57329 28.1319,27.49658     27.49356,26.13466   " style="fill:#DDBEA8;"/><path d="M25.93542,12.46566c0,0-1.08489,3.31902-3.09676,3.92865s-5.18261,0.06918-5.51554,2.20367    s0.72039,4.17214,1.27446,4.7474c0.55407,0.57527,2.98282,3.8591,5.40242,3.8518c2.4196-0.0073,5.43451-1.95931,6.27766-4.73886    c0,0,1.26346-0.79181,1.25486-2.23563s-0.8358-1.84025-0.8358-1.84025S30.36859,13.73634,25.93542,12.46566z" style="fill:#F9D9C0;"/><path d="M28.71274,28.93375c0.07185,1.7486-0.55094,3.46122,2.26356,5.86847    c-0.11974-0.37126-0.27547-0.69463-0.32336-1.05386c-0.19159-1.46122,0.20362-2.6708,0.89825-3.78459    c0.21554-0.34731,0.40724-0.74253,0.51496-1.17374c0.43119-1.6647,0.29942-3.26961-0.49101-4.69473    c-0.35923-0.62278-0.73061-1.2097-1.13774-1.82045c-0.03598,0.02395-0.05993,0.03587-0.09579,0.04787    c0,0-1.04194,2.34734-2.87442,3.78461c0,0,0.17967,0.17967,0.39521,0.46706c0.16776,0.23949,0.37126,0.55094,0.53902,0.92217    c0.14369,0.31136,0.26344,0.6707,0.29942,1.04197C28.71274,28.67032,28.72478,28.80209,28.71274,28.93375" style="fill:#464747;"/><path d="M30.70083,18.49027v-0.01206c0-0.31131-0.07185-0.67065-0.10771-0.89822    c-0.21565-1.35328-0.91028-2.39522-1.80853-3.29347c-0.81437-0.81449-1.7486-1.43727-2.79054-1.97617    c-0.10771,0.28738-0.21554,0.57488-0.34731,0.85035c-0.27547,0.62278-0.61075,1.22161-1.01799,1.7486    c-0.39521,0.51496-0.89825,1.07781-1.47313,1.36531C23,16.34646,22.84427,16.39436,22.68855,16.44226    c-0.27547,0.08388-0.55094,0.14369-0.8264,0.20362c-0.49101,0.10783-0.99405,0.17967-1.49708,0.25152    c-0.13166,0.01192-0.26344,0.03587-0.40713,0.05981c-0.09579,0.01203-0.19159,0.02392-0.2875,0.03598    c-0.88622,0.14369-1.71262,0.34731-2,0.67068c-0.05993,0.07185-0.2396,0.29942-0.34731,0.71858    c-0.13177,0.47909-0.16776,1.22161,0.20362,2.25164c0,0.02395,0.01192,0.0479,0.01192,0.07185    c0.02395,0.0479,0.02395,0.09579,0.0479,0.14369c0.17967,0.51495,0.39521,1.01799,0.61087,1.52103    c0.2035,0.45514,0.34731,0.99405,0.61075,1.32933c-1.40129-0.67068-2.3833-2.59884-2.82641-4.07197    c-0.14381-0.47909-0.26355-0.97009-0.3354-1.47313c0-0.01192-0.01192-0.02395-0.01192-0.0479    c-0.43119-2.79054,0.02395-5.74873,1.31741-8.22782c1.07781-2.084,2.98213-3.66484,5.2576-3.86846    c1.29346-0.11974,2.81449-0.0479,3.98821,0.67068c0.19159,0.10783,0.52699,0.08388,0.74253,0.13178    c0.25152,0.05979,0.51507,0.13178,0.76659,0.22755c0.50292,0.19161,0.98201,0.45505,1.43715,0.7665    c1.77255,1.28143,2.7187,3.44919,3.03003,5.66485c0.22757,1.55701-0.25152,3.77267-0.5389,4.88646    c-0.10783,0.43119-0.19171,0.69463-0.19171,0.69463" style="fill:#464747;"/><circle cx="27.49356" cy="18.67087" r="2.13849" style="fill:#F4F4F4;"/><path d="M21.86215,16.64588c0.86238,0.26344,1.49708,1.06589,1.49708,2.02407    c0,1.18563-0.95806,2.1437-2.13178,2.1437c-1.18575,0-2.14381-0.95806-2.14381-2.1437c0-0.02397,0-0.04801,0.01192-0.07196    c0.01203-0.68259,0.34743-1.26951,0.86238-1.64077" style="fill:#F4F4F4;"/><path d="    M32.64102,28.58642l0.99405,0.25154c3.10199,0.8743,5.54522,2.97021,6.59908,5.65293l1.53306,3.90433    c0,0-15.9887,8.2159-35.53442-0.03587l1.53306-3.90445c1.04194-2.68272,3.48517-4.7666,6.58705-5.6409l5.71286-1.61683    l0.44311-1.43718" style="fill:none;stroke:#30302F;stroke-width:0.8;stroke-linecap:round;stroke-linejoin:round;stroke-miterlimit:10;"/><polyline points="    28.40141,27.49658 28.14989,27.42476 27.86239,26.5744   " style="fill:none;stroke:#30302F;stroke-width:0.8;stroke-linecap:round;stroke-linejoin:round;stroke-miterlimit:10;"/><path d="    M18.81314,23.69998c0,0,2.22734,3.55711,5.73716,3.47325c1.19246-0.02395,2.21624-0.51495,3.03744-1.14977l0.01122-0.01192    c1.83364-1.43727,2.74484-3.68882,2.74484-3.68882c0.03378-0.01201,0.05623-0.02392,0.09001-0.04787    c1.27113-0.50304,1.18112-2.63482,1.01244-3.22174c-0.1688-0.5868-0.75386-0.56783-0.75386-0.56783" style="fill:none;stroke:#30302F;stroke-width:0.8;stroke-linecap:round;stroke-linejoin:round;stroke-miterlimit:10;"/><path d="    M30.70083,18.49027v-0.01206c0-0.31131-0.07185-0.67065-0.10771-0.89822c-0.21565-1.35328-0.91028-2.39522-1.80853-3.29347    c-0.81437-0.81449-1.7486-1.43727-2.79054-1.97617c-0.10771,0.28738-0.21554,0.57488-0.34731,0.85035    c-0.27547,0.62278-0.61075,1.22161-1.01799,1.7486c-0.39521,0.51496-0.89825,1.07781-1.47313,1.36531    C23,16.34646,22.84427,16.39436,22.68855,16.44226c-0.27547,0.08388-0.55094,0.14369-0.8264,0.20362    c-0.49101,0.10783-0.99405,0.17967-1.49708,0.25152c-0.13166,0.01192-0.26344,0.03587-0.40713,0.05981    c-0.09579,0.01203-0.19159,0.02392-0.2875,0.03598c-0.88622,0.14369-1.71262,0.34731-2,0.67068    c-0.05993,0.07185-0.2396,0.29942-0.34731,0.71858c-0.13177,0.47909-0.16776,1.22161,0.20362,2.25164    c0,0.02395,0.01192,0.0479,0.01192,0.07185c0.02395,0.0479,0.02395,0.09579,0.0479,0.14369    c0.17967,0.51495,0.39521,1.01799,0.61087,1.52103c0.2035,0.45514,0.34731,0.99405,0.61075,1.32933    c-1.40129-0.67068-2.3833-2.59884-2.82641-4.07197c-0.14381-0.47909-0.26355-0.97009-0.3354-1.47313    c0-0.01192-0.01192-0.02395-0.01192-0.0479c-0.43119-2.79054,0.02395-5.74873,1.31741-8.22782    c1.07781-2.084,2.98213-3.66484,5.2576-3.86846c1.29346-0.11974,2.81449-0.0479,3.98821,0.67068    c0.19159,0.10783,0.52699,0.08388,0.74253,0.13178c0.25152,0.05979,0.51507,0.13178,0.76659,0.22755    c0.50292,0.19161,0.98201,0.45505,1.43715,0.7665c1.77255,1.28143,2.7187,3.44919,3.03003,5.66485    c0.22757,1.55701-0.25152,3.77267-0.5389,4.88646c-0.10783,0.43119-0.19171,0.69463-0.19171,0.69463" style="fill:none;stroke:#30302F;stroke-width:0.8;stroke-linecap:round;stroke-linejoin:round;stroke-miterlimit:10;"/><path d="    M28.71274,28.93375c0.07185,1.7486-0.55094,3.46122,2.26356,5.86847c-0.11974-0.37126-0.27547-0.69463-0.32336-1.05386    c-0.19159-1.46122,0.20362-2.6708,0.89825-3.78459c0.21554-0.34731,0.40724-0.74253,0.51496-1.17374    c0.43119-1.6647,0.29942-3.26961-0.49101-4.69473c-0.35923-0.62278-0.73061-1.2097-1.13774-1.82045    c-0.03598,0.02395-0.05993,0.03587-0.09579,0.04787c0,0-1.04194,2.34734-2.87442,3.78461c0,0,0.17967,0.17967,0.39521,0.46706    c0.16776,0.23949,0.37126,0.55094,0.53902,0.92217c0.14369,0.31136,0.26344,0.6707,0.29942,1.04197    C28.71274,28.67032,28.72478,28.80209,28.71274,28.93375" style="fill:none;stroke:#30302F;stroke-width:0.8;stroke-linecap:round;stroke-linejoin:round;stroke-miterlimit:10;"/><path d="    M20.06576,27.19718l4.05948,2.3761l-2.17193,2.39628c0,0-1.68184-4.14335-6.85951-3.3652" style="fill:none;stroke:#30302F;stroke-width:0.8;stroke-linecap:round;stroke-linejoin:round;stroke-miterlimit:10;"/><path d="    M28.71274,28.93375c-2.05993,1.04194-2.82641,3.03003-2.82641,3.03003l-1.76063-2.39522l4.02419-2.14381" style="fill:none;stroke:#30302F;stroke-width:0.8;stroke-linecap:round;stroke-linejoin:round;stroke-miterlimit:10;"/><line style="fill:none;stroke:#30302F;stroke-width:0.8;stroke-linecap:round;stroke-linejoin:round;stroke-miterlimit:10;" x1="24.1257" x2="24.1257" y1="29.56857" y2="37.69386"/><circle cx="27.49356" cy="18.67087" r="2.13849" style="fill:none;stroke:#30302F;stroke-width:0.8;stroke-linecap:round;stroke-linejoin:round;stroke-miterlimit:10;"/><path d="    M21.86215,16.64588c0.86238,0.26344,1.49708,1.06589,1.49708,2.02407c0,1.18563-0.95806,2.1437-2.13178,2.1437    c-1.18575,0-2.14381-0.95806-2.14381-2.1437c0-0.02397,0-0.04801,0.01192-0.07196    c0.01203-0.68259,0.34743-1.26951,0.86238-1.64077" style="fill:none;stroke:#30302F;stroke-width:0.8;stroke-linecap:round;stroke-linejoin:round;stroke-miterlimit:10;"/><line style="fill:none;stroke:#30302F;stroke-width:0.8;stroke-linecap:round;stroke-linejoin:round;stroke-miterlimit:10;" x1="25.3509" x2="23.36281" y1="18.67087" y2="18.67087"/><polyline points="    29.62303,18.62193 29.63494,18.62193 30.68892,18.49027 30.70083,18.47822   " style="fill:none;stroke:#30302F;stroke-width:0.8;stroke-linecap:round;stroke-linejoin:round;stroke-miterlimit:10;"/><line style="fill:none;stroke:#30302F;stroke-width:0.8;stroke-linecap:round;stroke-linejoin:round;stroke-miterlimit:10;" x1="19.09555" x2="17.32312" y1="18.59798" y2="18.38245"/><path d="    M26.05698,23.31831c-0.33875,0.68711-0.9215,1.00272-1.69978,0.99393c-0.76208-0.00868-1.32447-0.33378-1.65269-0.99106    c0.35437-0.18867,0.66594-0.42585,1.01626-0.52303c0.44346-0.12321,0.92706-0.15642,1.37329,0.01805    C25.41662,22.9423,25.71279,23.13563,26.05698,23.31831z" style="fill:none;stroke:#30302F;stroke-width:0.8;stroke-linecap:round;stroke-linejoin:round;stroke-miterlimit:10;"/><path d="    M23.62313,21.09709c0.12749,0.02464,0.25522,0.04732,0.38341,0.06814c0.14716,0.02395,0.29629,0.04547,0.44577,0.03806    c0.23058-0.01145,0.45977-0.073,0.68607-0.11535" style="fill:none;stroke:#30302F;stroke-width:0.8;stroke-linecap:round;stroke-linejoin:round;stroke-miterlimit:10;"/></g></g></svg>